<svg xmlns="http://www.w3.org/2000/svg" viewBox="0 0 48 48" width="48" height="48" role="img" aria-label="فندق">
  <defs>
    <linearGradient id="fdNut" x1="0.15" y1="0" x2="0.9" y2="1">
      <stop offset="0%" stop-color="#ffe6a3" />
      <stop offset="42%" stop-color="#f4b740" />
      <stop offset="100%" stop-color="#b06f0c" />
    </linearGradient>
    <linearGradient id="fdCap" x1="0" y1="0" x2="0" y2="1">
      <stop offset="0%" stop-color="#7a4d0c" />
      <stop offset="100%" stop-color="#4a2c05" />
    </linearGradient>
    <linearGradient id="fdLeaf" x1="0" y1="1" x2="1" y2="0">
      <stop offset="0%" stop-color="#2f9e63" />
      <stop offset="100%" stop-color="#5ee6a0" />
    </linearGradient>
  </defs>

  <!-- بدنهٔ فندق -->
  <path
    d="M24 44c-8.6 0-15-6.2-15-14.9C9 19.4 15.2 9.5 24 9.5s15 9.9 15 19.6C39 37.8 32.6 44 24 44Z"
    fill="url(#fdNut)"
    stroke="rgba(60,34,4,0.55)"
    stroke-width="1.2"
  />
  <!-- کلاهک -->
  <path
    d="M24 9.5c-5.4 0-10 3.1-12.8 8.2 3.9-2.2 8.2-3.3 12.8-3.3s8.9 1.1 12.8 3.3C34 12.6 29.4 9.5 24 9.5Z"
    fill="url(#fdCap)"
  />
  <path d="M24 15.4V42" stroke="rgba(74,44,5,0.4)" stroke-width="1.4" stroke-linecap="round" />
  <!-- بازتاب نور -->
  <ellipse cx="17.6" cy="27" rx="3.2" ry="6" fill="#fff" opacity="0.34" transform="rotate(-16 17.6 27)" />
  <!-- برگ -->
  <path
    d="M25.4 10c-1-4.3 1.6-7.9 6.6-9 1.1 4.7-1.4 8.4-6.6 9Z"
    fill="url(#fdLeaf)"
    stroke="rgba(12,60,36,0.35)"
    stroke-width="0.8"
  />
</svg>
